HIERARCHY
ROOT Hips
{
	OFFSET -0.001795 -0.223333 0.028219
	CHANNELS 6 Xposition Yposition Zposition Zrotation Yrotation Xrotation 
	JOINT LeftUpLeg
	{
		OFFSET 0.069520 -0.091406 -0.006815
		CHANNELS 3 Zrotation Yrotation Xrotation
		JOINT LeftLeg
		{
			OFFSET 0.034277 -0.375199 -0.004496
			CHANNELS 3 Zrotation Yrotation Xrotation
			JOINT LeftFoot
			{
				OFFSET -0.013596 -0.397961 -0.043693
				CHANNELS 3 Zrotation Yrotation Xrotation
				JOINT LeftToe
				{
					OFFSET 0.026358 -0.055791 0.119288
					CHANNELS 3 Zrotation Yrotation Xrotation
					End Site
					{
						OFFSET 0.000000 0.000000 0.000000
					}
				}
			}
		}
	}
	JOINT RightUpLeg
	{
		OFFSET -0.067670 -0.090522 -0.004320
		CHANNELS 3 Zrotation Yrotation Xrotation
		JOINT RightLeg
		{
			OFFSET -0.038290 -0.382569 -0.008850
			CHANNELS 3 Zrotation Yrotation Xrotation
			JOINT RightFoot
			{
				OFFSET 0.015774 -0.398415 -0.042312
				CHANNELS 3 Zrotation Yrotation Xrotation
				JOINT RightToe
				{
					OFFSET -0.025372 -0.048144 0.123348
					CHANNELS 3 Zrotation Yrotation Xrotation
					End Site
					{
						OFFSET 0.000000 0.000000 0.000000
					}
				}
			}
		}
	}
	JOINT Spine
	{
		OFFSET -0.002533 0.108963 -0.026696
		CHANNELS 3 Zrotation Yrotation Xrotation
		JOINT Spine1
		{
			OFFSET 0.005487 0.135180 0.001092
			CHANNELS 3 Zrotation Yrotation Xrotation
			JOINT Spine2
			{
				OFFSET 0.001457 0.052922 0.025425
				CHANNELS 3 Zrotation Yrotation Xrotation
				JOINT Neck
				{
					OFFSET -0.002778 0.213870 -0.042857
					CHANNELS 3 Zrotation Yrotation Xrotation
					JOINT Head
					{
						OFFSET 0.005152 0.064970 0.051349
						CHANNELS 3 Zrotation Yrotation Xrotation
						End Site
						{
							OFFSET 0.000000 0.000000 0.000000
						}
					}
				}
				JOINT LeftShoulder
				{
					OFFSET 0.078845 0.121749 -0.034090
					CHANNELS 3 Zrotation Yrotation Xrotation
					JOINT LeftArm
					{
						OFFSET 0.090977 0.030469 -0.008868
						CHANNELS 3 Zrotation Yrotation Xrotation
						JOINT LeftForeArm
						{
							OFFSET 0.259612 -0.012772 -0.027456
							CHANNELS 3 Zrotation Yrotation Xrotation
							JOINT LeftHand
							{
								OFFSET 0.249234 0.008986 -0.001171
								CHANNELS 3 Zrotation Yrotation Xrotation
								End Site
								{
									OFFSET 0.000000 0.000000 0.000000
								}
							}
						}
					}
				}
				JOINT RightShoulder
				{
					OFFSET -0.081759 0.118833 -0.038615
					CHANNELS 3 Zrotation Yrotation Xrotation
					JOINT RightArm
					{
						OFFSET -0.096012 0.032551 -0.009143
						CHANNELS 3 Zrotation Yrotation Xrotation
						JOINT RightForeArm
						{
							OFFSET -0.253742 -0.013329 -0.021401
							CHANNELS 3 Zrotation Yrotation Xrotation
							JOINT RightHand
							{
								OFFSET -0.255298 0.007772 -0.005559
								CHANNELS 3 Zrotation Yrotation Xrotation
								End Site
								{
									OFFSET 0.000000 0.000000 0.000000
								}
							}
						}
					}
				}
			}
		}
	}
}
MOTION
Frames: 11
Frame Time: 0.050000
1.566535 0.898840 0.278897 -6.504206 -21.650717 11.295384 26.614940 8.950883 -30.805867 -7.010659 3.879872 28.131244 15.434361 25.065527 21.185518 0.000000 0.000000 0.000000 -3.092075 5.578446 -36.732383 8.545664 0.613950 32.240210 -2.254995 -11.802513 10.929299 0.000000 0.000000 0.000000 1.371952 2.369027 50.045937 -10.373405 2.336821 -29.566055 -16.563188 -21.382760 32.557871 0.973756 -1.667702 -45.177874 0.000000 0.000000 0.000000 -5.471155 -31.176909 16.662663 5.058776 -39.929169 -2.855595 31.184392 -17.349334 -3.578109 0.000000 0.000000 0.000000 21.834801 3.334230 -10.445021 48.128598 -2.940417 -5.351577 22.997384 55.821018 7.754723 0.000000 0.000000 0.000000 
1.587885 0.875739 0.296455 -6.770691 -19.749305 11.160831 28.739807 9.487543 -31.111979 -5.070324 2.414767 24.721977 12.640352 20.890031 27.666352 0.000000 0.000000 0.000000 -5.142471 5.260150 -38.703655 10.651459 -0.106322 37.098761 -5.371678 -16.847122 8.009782 0.000000 0.000000 0.000000 0.279168 2.884039 53.186686 -10.377999 2.335955 -29.745864 -15.926058 -21.945927 32.038114 1.484110 -1.569004 -45.434963 0.000000 0.000000 0.000000 -4.730610 -31.458605 16.208320 5.523303 -38.976644 -2.863611 30.622484 -18.171717 -3.669267 0.000000 0.000000 0.000000 21.099205 3.298129 -9.581220 47.535586 -2.482894 -5.323622 15.916440 52.969376 4.299064 0.000000 0.000000 0.000000 
1.613273 0.851691 0.315748 -8.190919 -18.881903 10.725071 30.234290 10.643783 -33.248908 -5.303751 2.962540 30.100385 11.745504 20.261582 24.388520 0.000000 0.000000 0.000000 -6.035637 5.383087 -41.083836 12.494594 -0.838201 42.415632 -8.586393 -23.324236 10.469381 0.000000 0.000000 0.000000 -0.606869 3.514791 56.102931 -9.721696 2.210618 -29.614344 -14.262453 -20.776368 30.678530 2.370879 -1.709540 -44.434056 0.000000 0.000000 0.000000 -5.300320 -30.507029 15.773355 4.785111 -38.630461 -2.822076 32.210963 -19.556258 -4.195619 0.000000 0.000000 0.000000 20.026097 3.439838 -8.086508 47.476829 0.104783 -4.685403 9.483396 48.061960 1.682927 0.000000 0.000000 0.000000 
1.641279 0.834355 0.335329 -8.405065 -17.236995 9.650671 30.783843 11.022855 -35.194399 -7.508100 4.338079 35.063240 10.734660 19.611348 18.482075 0.000000 0.000000 0.000000 -7.640943 4.792643 -41.971018 13.076737 -1.403512 46.457818 -11.890237 -28.586556 14.516747 0.000000 0.000000 0.000000 -1.168280 3.816734 59.965057 -9.594645 2.157745 -30.683036 -13.087687 -20.058624 30.311868 2.278975 -1.569893 -43.716572 0.000000 0.000000 0.000000 -6.121819 -30.495114 15.841338 5.589245 -37.006008 -2.999730 34.685833 -19.974232 -4.735126 0.000000 0.000000 0.000000 20.260391 4.541517 -6.784354 47.557623 3.542819 -3.581038 3.554357 43.240203 -0.151574 0.000000 0.000000 0.000000 
1.670439 0.826552 0.354290 -9.071412 -15.571060 9.309193 29.482707 10.959276 -38.481671 -7.748061 4.945706 40.710516 11.430740 21.046096 15.142937 0.000000 0.000000 0.000000 -8.411177 4.223958 -41.519854 12.337521 -1.374311 48.310186 -13.367527 -30.182110 17.386227 0.000000 0.000000 0.000000 -2.177613 4.058123 61.613127 -9.299620 2.087683 -31.630961 -10.724553 -16.936403 29.941346 3.573697 -1.495272 -43.961840 0.000000 0.000000 0.000000 -7.061508 -30.012482 15.482616 6.291574 -37.604218 -3.436182 34.364457 -19.234051 -4.627268 0.000000 0.000000 0.000000 20.830936 4.112647 -5.865366 47.946470 7.901654 -2.300990 0.482405 40.420195 -0.548788 0.000000 0.000000 0.000000 
1.699469 0.829598 0.372113 -9.523008 -13.219330 8.468069 27.963287 9.872343 -39.772380 -7.858100 5.014309 43.661726 10.442285 20.024381 12.090911 0.000000 0.000000 0.000000 -9.072732 3.231570 -38.256318 11.661131 -1.531315 45.662569 -16.710988 -33.532150 22.720544 0.000000 0.000000 0.000000 -2.924680 3.745975 62.596954 -8.957555 2.017231 -32.432609 -8.641610 -13.816884 29.714829 3.567078 -1.096764 -43.513994 0.000000 0.000000 0.000000 -7.947399 -29.521875 15.026811 6.847962 -36.697426 -3.648043 33.182843 -17.242233 -4.065847 0.000000 0.000000 0.000000 21.073861 4.131435 -4.521479 48.203454 12.051898 -1.136963 -2.703970 39.295204 -1.020698 0.000000 0.000000 0.000000 
1.727221 0.840882 0.388540 -9.843350 -12.456119 8.848687 26.490217 8.753188 -38.987500 -8.644573 5.281792 42.668728 10.733082 20.663306 9.569298 0.000000 0.000000 0.000000 -8.695072 2.900170 -35.235519 9.531688 -0.662697 41.855179 -17.848009 -34.440634 24.503711 0.000000 0.000000 0.000000 -3.531099 3.774598 61.760003 -9.831683 2.174513 -32.552210 -6.167806 -11.066558 29.214726 4.359356 -1.098554 -42.999792 0.000000 0.000000 0.000000 -8.397677 -27.907288 14.088335 7.678947 -37.692755 -4.112555 31.161187 -13.446560 -2.931947 0.000000 0.000000 0.000000 20.392707 3.915913 -3.443844 48.493545 14.538439 -0.553807 -5.343081 42.318124 -1.712875 0.000000 0.000000 0.000000 
1.753260 0.855617 0.403151 -10.040213 -10.468825 8.574269 24.613738 7.150793 -38.055848 -8.607752 4.844796 41.657133 9.542612 18.997753 7.407870 0.000000 0.000000 0.000000 -9.187430 2.191113 -31.335331 8.073398 -0.506410 35.881721 -20.317048 -35.154862 32.768434 0.000000 0.000000 0.000000 -3.614693 3.026632 61.215842 -9.931811 2.221266 -32.483912 -4.820200 -8.957381 28.499488 4.738417 -0.898017 -43.026106 0.000000 0.000000 0.000000 -8.220427 -26.967401 13.213777 8.791796 -37.455269 -4.394720 29.803132 -10.053816 -2.060674 0.000000 0.000000 0.000000 20.607814 4.164253 -2.493409 47.683290 16.426838 0.021512 -8.049521 45.104042 -2.546759 0.000000 0.000000 0.000000 
1.776543 0.872513 0.415555 -10.144259 -9.441178 8.653227 22.904916 5.869436 -36.433834 -8.728846 4.486744 39.105144 9.157846 18.432289 7.332974 0.000000 0.000000 0.000000 -8.738681 1.970558 -28.656203 6.900762 -0.284771 31.841298 -22.894069 -36.322153 37.799114 0.000000 0.000000 0.000000 -4.039198 2.798275 59.818273 -10.770942 2.326511 -33.228779 -3.227389 -7.019451 28.568218 4.971654 -0.744282 -43.283476 0.000000 0.000000 0.000000 -8.453909 -25.705615 12.416473 9.547607 -39.137282 -4.979526 29.474433 -7.413735 -1.472392 0.000000 0.000000 0.000000 21.375752 3.663163 -2.207353 46.752164 17.218189 0.122333 -10.212687 48.252924 -3.322540 0.000000 0.000000 0.000000 
1.796507 0.889076 0.426103 -10.087278 -7.276881 8.757656 20.693381 4.374481 -35.296236 -8.205944 3.620958 36.286443 8.765517 17.940596 7.762476 0.000000 0.000000 0.000000 -8.757365 1.656789 -26.657462 7.277017 -0.734789 27.933437 -28.760049 -38.889714 46.366251 0.000000 0.000000 0.000000 -4.259152 2.082988 58.223292 -10.455028 2.279712 -33.461653 -2.321846 -5.596868 28.714051 5.809517 -0.846916 -43.154548 0.000000 0.000000 0.000000 -8.433687 -25.290228 11.954469 10.302835 -39.692999 -5.365629 30.688441 -6.294921 -1.317883 0.000000 0.000000 0.000000 22.055899 3.462808 -1.806074 46.169304 17.456240 0.065937 -12.005943 50.866287 -3.996291 0.000000 0.000000 0.000000 
1.812999 0.904335 0.435492 -9.893817 -5.203421 8.647320 18.581785 3.021502 -33.477601 -7.733577 2.837925 32.890630 8.642438 17.901649 8.082915 0.000000 0.000000 0.000000 -8.187966 1.503382 -25.069916 7.210035 -0.921747 25.451588 -21.006516 -34.057623 37.963798 0.000000 0.000000 0.000000 -4.133649 1.255689 56.633146 -10.816880 2.372001 -33.194484 -1.549397 -5.278287 28.400183 5.722581 -0.732371 -43.049952 0.000000 0.000000 0.000000 -8.877580 -25.063243 11.843569 10.493240 -41.086303 -5.753364 30.349847 -6.010930 -1.252939 0.000000 0.000000 0.000000 22.635146 3.212303 -1.736695 45.510829 16.602978 -0.286666 -12.353140 53.211692 -4.236606 0.000000 0.000000 0.000000 
